<svg version="1.1" id="ae7ad495-543d-4c4b-9483-8059c5566fe6" xmlns="http://www.w3.org/2000/svg" x="0" y="0" viewBox="0 0 1009.5 839.6" xml:space="preserve"><style>.st0{opacity:.1;fill:#1890ff;enable-background:new}.st1{fill:#38d39f}.st2{fill:#3a3768}.st4{fill:#e6e8ec}.st5{opacity:.1;enable-background:new}.st7{fill:#8e6f7f}.st8{fill:#5f5570}.st9{fill:#eaeaf2}.st10{fill:#bc8487}.st11{fill:#ffc4d0}</style><path class="st0" d="M586.6 111.4c-64.7-2.3-126.4-23.1-185.2-46S284.2 17.2 221 5.1C180.4-2.7 133.9-3.8 101.2 18 69.7 39 59.5 75.1 54 108.7c-4.1 25.3-6.5 51.9 4.7 75.5 7.8 16.4 21.7 30.2 31.4 46 33.5 54.7 9.8 122.2-26.4 175.6-17 25.1-36.8 49-49.9 75.7C.7 508.2-5.4 538.8 6.1 566c11.4 27 38.5 47.2 67.9 61.5 59.7 29 130 37.2 198.6 41.9 151.8 10.4 304.5 5.9 456.7 1.4 56.3-1.7 112.9-3.4 168.3-12.1 30.8-4.8 62.6-12.5 84.9-31 28.4-23.5 35.4-63.4 16.4-92.9-31.9-49.5-120-61.8-142.3-114.9-12.3-29.2.3-61.8 18.2-88.9 38.2-58.2 102.3-109.2 105.7-175.7 2.3-45.7-28.5-91.4-76.1-113-49.9-22.6-119.2-19.8-156 17.7-38 38.5-104.7 53.4-161.8 51.4z"/><ellipse class="st0" cx="483.5" cy="781" rx="304" ry="41.1"/><path class="st1" d="M354.3 234.3s27.7-36.1 42.8-33.3c0 0-16.8 32.2-42.8 37v-3.7zM368.3 189.8s24.5-27.7 37.7-27.6c0 0-19.3 37-38.7 36.7l1-9.1z"/><path class="st2" d="M645.1 289.8h4.3c1.3 0 2.3 1 2.3 2.3v68.4c0 1.3-1 2.3-2.3 2.3h-4.3c-1.3 0-2.3-1-2.3-2.3v-68.4c0-1.3 1-2.3 2.3-2.3zM350.7 232.6h.4c1.3 0 2.3 1 2.3 2.3v19.5c0 1.3-1 2.3-2.3 2.3h-.4c-1.3 0-2.3-1-2.3-2.3v-19.5c0-1.3 1-2.3 2.3-2.3zM350.5 276.6h1c1.3 0 2.3 1 2.3 2.3v37.3c0 1.3-1 2.3-2.3 2.3h-1c-1.3 0-2.3-1-2.3-2.3v-37.3c0-1.2 1-2.3 2.3-2.3zM350.6 333.1h.7c1.3 0 2.3 1 2.3 2.3V373c0 1.3-1 2.3-2.3 2.3h-.7c-1.3 0-2.3-1-2.3-2.3v-37.6c0-1.3 1-2.3 2.3-2.3z"/><path class="st2" d="M390.2 153.2h218.4c21.5 0 39 17.5 39 39v524.4c0 21.5-17.5 39-39 39H390.2c-21.5 0-39-17.5-39-39V192.2c0-21.6 17.4-39 39-39z"/><path d="M605.8 168.8h-34v4.1c0 10.7-8.7 19.4-19.4 19.4H444.2c-10.7 0-19.4-8.7-19.4-19.4v-4.1H393c-13 0-23.5 10.5-23.5 23.5v524c0 13 10.5 23.5 23.5 23.5h212.7c13 0 23.5-10.5 23.5-23.5V192.4c.1-13-10.4-23.6-23.4-23.6z" fill="#1890ff"/><path class="st4" d="M474.7 171.2h33.6c2.1 0 3.9 1.7 3.9 3.9v.7c0 2.1-1.7 3.9-3.9 3.9h-33.6c-2.1 0-3.9-1.7-3.9-3.9v-.8c0-2.1 1.7-3.8 3.9-3.8z"/><circle class="st4" cx="523.2" cy="175.4" r="4.8"/><path class="st5" d="M395.9 226.2h206.9v439.2H395.9z"/><linearGradient id="SVGID_1_" gradientUnits="userSpaceOnUse" x1="491.198" y1="198.909" x2="698.069" y2="198.909" gradientTransform="matrix(1 0 0 -1 -95.23 809.71)"><stop offset="0" stop-color="gray" stop-opacity=".25"/><stop offset=".54" stop-color="gray" stop-opacity=".12"/><stop offset="1" stop-color="gray" stop-opacity=".1"/></linearGradient><path d="M596.5 788s-4.9-11.4-7.1-16.6c-1.2-3-3.3-3.5-4.9-3.4l.1-1 .4-4.7.1-1c3.8-.8 7-1.4 7-1.4l-2.4-121.3s-1-1.3-3.4-9c-1.2-3.8-7-8.6-12.4-12.3-.8-.6-1.7-1.2-2.5-1.7 2-1.7 4-3.2 6.2-4.6 3.1-1.8 4.1-12 4.1-12l-.5 1c.5-1 0-27.1 0-27.1l-1.8-27.1s-1.3-32.2-11.3-40.6-22.6-11.4-22.6-11.4l-7-1.8-12.9-3.3c-.4-.6-.7-1.2-1-1.9-.1-.3-.3-.5-.4-.8 8-5.7 12.8-14.9 12.8-24.6 0-1.6-.1-3.2-.4-4.8 0-.3-.1-.6-.2-.9 1.1-.7 2.1-1.5 3-2.4 1.5-1.2 2.8-2.7 3.7-4.5.1-.3.3-.7.3-1 0-.1 0-.2.1-.3s.1-.5.1-.8v-.3-.9-.2c0-.3 0-.7-.1-1v-.1c-.2-1.2-.5-2.3-.9-3.4-1-2.6-2.3-5-2.8-7.8-.6-3.3.1-6.8-1.5-9.7-1.3-2.2-3.5-3.8-6.1-4.2-2.5-.4-5.1-.1-7.5.9-1.2.6-2.4.9-3.7 1-.9-.1-1.9-.3-2.7-.7-3-1.2-5.8-2.7-8.4-4.5-1.9-1.5-3.9-2.8-6-3.9s-4.7-1.2-6.9-.3c-3.7 1.9-4.4 7.1-7.8 9.4-2.4 1.6-5.5 1.4-8.3 1.5s-6.1.8-7.5 3.3c-1 1.7-.8 3.8-.6 5.8l.1.7c0 .2 0 .5.1.7.2 2.6-.2 5.1-1.1 7.6-1.4 3.7-4 7.3-3.9 11 0 .6.1 1.2.2 1.8l.3.9 1.8 3.6.1.2c.1.1.1.3.2.4s.2.4.3.6.1.2.1.3.1.4.2.6c.2.6.2 1.2.2 1.7-.1.8-.2 1.5-.2 2.3 0 .8.6 1.5 1.3 1.6.4 0 .8-.1 1.2-.4.9-.5 1.8-1.1 2.5-1.8 0 .3 0 .6.1 1 .7 7.2 3.9 13.8 9.1 18.8 0 .3 0 .6-.1 1s0 .7-.1 1.1l-11.2 3.5s.1.2.2.5l-1.2.5c-5.8 2.3-12.3 5.3-15.9 7.9-1.6 1.2-3.1 2.1-4.4 2.9-4.8 2.9-8.4 7.3-10.4 12.5l-.2.4c-1 2.3-5.9 17.9-5.9 17.9s-3.6 8.7-4.1 14.3c0 0-5.9 18.6-4.4 30.9 0 0-4.6 17.6-2.8 20.4 0 0-1.8 7.6 6.2 15.2-.6.4-1.2.8-1.9 1.2-6.3 3.9-15.3 10.3-16.8 15.3-2.4 7.7-3.4 9-3.4 9l-2.4 121.1s3.2.6 7 1.4l.1 1 .4 4.7.1 1c-1.6-.1-3.7.5-4.9 3.4-2.2 5.2-7 16.6-7 16.6s-10.8 10-4.2 19.3c.3.4.6.8 1 1.2 4.7 4.3 14.7 1.5 21.8-1.3 3.6-1.5 6.7-4.1 9-7.3.6-.8 1.4-1.2 2.4-1.3 1.6-.3 3.2-.9 4.5-2 1.6-1.2 2.5-3 2.5-5v-.2l-.6-14.2s-.8-9.9-3.2-9.3l-.6.2-.2-1-.3-1.9-.2-1h1.4s.3-11.2 4.5-20.1 6.8-80.3 6.8-80.3 50.9.8 52.6-3.9c1 0 2.1 0 3.1-.1 1.7 4.8 49.7 5 49.7 5s2.7 71.5 6.8 80.3c.9 1.9 1.6 3.9 2.2 5.9 1.3 4.6 2.1 9.4 2.3 14.2h1.4l-.2 1-.3 1.9-.2 1-.7-.2c-2.4-.6-3.2 9.3-3.2 9.3l-.7 14.3c-.1 2 .8 3.8 2.4 5 1.3 1 2.9 1.7 4.5 2 1 .1 1.8.6 2.4 1.3 2.3 3.2 5.4 5.7 9 7.3 7.7 3 18.7 5.9 22.8.1 6.5-9.1-4.3-19.1-4.3-19.1zM467.2 609.7h.1-.1zm80.4-40.9s1.3 4.8 3.6 7.4 1.2 18.4 1.2 18.4c-.9.1-1.8.2-2.7.4-1.8-10.5-3.5-22.2-2.1-26.2z" fill="url(#SVGID_1_)"/><path class="st7" d="M437 768.4l-20.1 2-.6-6.7-.4-4.6-.5-6.8 19 1 1.5 8.7.3 1.9zM583.4 753.3l-.5 6.8-.4 4.6-.6 6.7-20.1-2 .8-4.5.3-1.9 1.5-8.7z"/><path class="st8" d="M562.1 655.9l-59.8 2.8c-2.7.1-5.4.1-8.2 0l-57.1-2.8v-45.3h125.1v45.3z"/><path class="st5" d="M562.1 655.9l-59.8 2.8c-2.7.1-5.4.1-8.2 0l-57.1-2.8v-45.3h125.1v45.3z"/><path class="st9" d="M485.5 488.7s-19.9 6.7-27.4 12.2c-1.6 1.1-3 2.1-4.3 2.8-4.6 2.9-8.2 7.2-10.1 12.3 0 .1-.1.3-.2.4-1 2.3-5.8 17.5-5.8 17.5s-3.5 8.5-4 14 28.5 20.3 28.5 20.3-14 30.5-7.8 38.3 97.5 11.5 95.5 0-5.5-30.5-3.8-35.8l31-22.5s-1.3-31.5-11-39.8-22-11.3-22-11.3l-19.4-5s-6.8 17-14.3 19.3c-7.3 2.3-23.7-8.1-24.9-22.7z"/><path class="st5" d="M513.5 517.4s-8.5 7.1-12.9 0c0 0-4 11.9 0 15.9l-.2.8-.7 3.6-9.3 77 7.6 13.2 13.9-17.4-1.1-72-.5-4.1-.1-1h2.4c0-.1 6.3-11 .9-16z"/><path class="st5" d="M515.5 517.4s-8.5 7.1-12.9 0c0 0-4 11.9 0 15.9l-.2.8-.7 3.6-9.3 77 7.6 13.2 13.9-17.4-1.1-72-.5-4.1-.1-1h2.4c0-.1 6.3-11 .9-16z"/><path class="st10" d="M513 609.4l-13.9 17.4-7.6-13.1 9.2-77 .7-3.6.2-.8 1.3-3.2 8.3 3.2.2 1 .5 4.1z"/><path class="st5" d="M435.9 762c-4.3 0-8.6-.5-12.8-1.3-2.1-.5-4.7-1.1-7.1-1.6l-.6-6.8 19 1 1.5 8.7z"/><path class="st8" d="M499.2 658.8c-1.7 4.7-51.2 3.8-51.2 3.8s-2.7 70-6.7 78.7S437 761 437 761s-8.7 0-14-1.3-14-3-14-3l2.3-118.8s1-1.3 3.3-8.8c1.5-4.8 10.3-11.1 16.4-15 3.4-2.1 5.9-3.5 5.9-3.5l29.6 1.2 18.3.7c.1.1 16.1 41.7 14.4 46.3z"/><path class="st5" d="M437 768.4l-20.1 2-.6-6.7c.8 0 1.5.2 2.2.5 3.7 2.6 14.2.5 17.7-.3l.8 4.5z"/><path class="st10" d="M440.8 787.9c0 1.9-.9 3.8-2.4 4.9-1.3 1-2.8 1.6-4.3 1.9-.9.1-1.8.6-2.3 1.3-2.2 3.1-5.3 5.6-8.8 7.1-6.9 2.7-16.7 5.4-21.3 1.2-.4-.3-.7-.7-1-1.1-6.4-9.1 4.1-18.9 4.1-18.9s4.7-11.1 6.9-16.2c.9-2.6 3.8-4 6.4-3.1.2.1.3.1.5.2 4 2.9 16.1.1 18.5-.5s3.1 9.1 3.1 9.1l.6 13.9v.2z"/><path class="st5" d="M583.4 753.3l-.6 6.8c-2.4.5-5 1.1-7.1 1.6-4.2.8-8.5 1.3-12.8 1.3l1.5-8.7 19-1z"/><path class="st8" d="M589.8 757.7s-8.7 1.7-14 3-14 1.3-14 1.3-.3-11-4.3-19.7-6.7-78.7-6.7-78.7-46.8-.3-48.5-4.9 20.4-45 20.4-45l13.5-.7 25.6-1.4s5 2.7 10.2 6.4 10.9 8.3 12.1 12.1c2.3 7.5 3.3 8.8 3.3 8.8l2.4 118.8z"/><path class="st5" d="M582.5 764.7l-.6 6.7-20.1-2 .8-4.5c3.5.8 14 2.9 17.7.3.7-.3 1.4-.5 2.2-.5z"/><path class="st10" d="M580.3 766.2c2.5-1.2 5.5-.1 6.7 2.4.1.2.2.3.2.5 2.1 5.1 6.9 16.3 6.9 16.3s10.5 9.8 4.1 18.9c-4 5.7-14.8 2.8-22.2-.1-3.5-1.5-6.6-4-8.8-7.1-.6-.7-1.4-1.2-2.3-1.3-1.6-.3-3.2-1-4.4-2-1.5-1.1-2.4-3-2.3-4.9l.6-14s.8-9.7 3.1-9.1 14.4 3.2 18.4.4z"/><path class="st11" d="M528.6 497.2l-20.2 21.4-.6.6-.7-.4c-4.2-2.5-25.3-15.2-23.5-19.1 1-2.2 1.6-6.7 1.9-10.6 0-.5.1-.9.1-1.4.2-3.1.3-5.5.3-5.5s38-6.5 36.5 0c-.6 2.6.3 5.6 1.6 8.2.4.8.8 1.5 1.2 2.1 1 1.6 2.1 3.2 3.4 4.7z"/><path class="st5" d="M523.9 490.4c-11.7 8.6-28 7.5-38.3-2.7.2-3.1.3-5.5.3-5.5s38-6.5 36.5 0c-.6 2.6.3 5.6 1.5 8.2z"/><path class="st11" d="M536 465.5c.2 16.4-12.9 29.9-29.2 30.1-15.6.2-28.7-11.7-30-27.3-.1-.9-.1-1.9-.1-2.8-.3-16.4 12.7-29.9 29.1-30.2 16.4-.3 29.9 12.7 30.2 29.1v1.1z"/><path class="st5" d="M535.6 460.7c-1.6 1.3-3.6 1.8-5.6 1.5-4.6-1-6.2-8-10.8-8.5s-7.8 6-12.5 5.9c-2 0-3.8-1.4-5.6-2.3-3.2-1.6-8.5-2.6-12-1.4-5.2 1.8-7 6.6-10.3 10.5-.6.7-1.2 1.3-1.9 1.8-.1-.9-.1-1.9-.1-2.8-.1-16.4 13-29.8 29.4-29.9 14.7-.1 27.3 10.6 29.4 25.2z"/><path class="st7" d="M501.1 456.4c1.8.9 3.6 2.2 5.6 2.3 4.7.1 7.8-6.4 12.5-5.9s6.3 7.5 10.8 8.5c3.1.7 6-1.6 8.3-3.8 1.5-1.2 2.7-2.7 3.6-4.4 1-2.5.5-5.3-.5-7.9s-2.2-4.9-2.7-7.6c-.6-3.2.1-6.7-1.4-9.5-1.3-2.2-3.4-3.7-5.9-4.1-2.5-.4-5-.1-7.3.8-1.1.5-2.4.9-3.6 1-.9-.1-1.8-.3-2.7-.6-2.9-1.1-5.6-2.6-8.2-4.4-1.8-1.5-3.8-2.7-5.8-3.8-2.1-1.1-4.6-1.2-6.7-.3-3.6 1.8-4.3 7-7.6 9.2-2.3 1.6-5.3 1.4-8.1 1.5s-6 .8-7.3 3.2c-1.2 2.1-.6 4.7-.4 7 .1 2.5-.2 5-1.1 7.4-1.5 4.1-4.7 8.2-3.6 12.5.7 2.8 3.3 5.1 3.1 8-.1.7-.2 1.5-.2 2.2 0 .8.6 1.4 1.3 1.6.4 0 .8-.1 1.1-.4 1.7-.9 3.2-2.1 4.4-3.6 3.4-3.9 5.1-8.7 10.4-10.5 3.5-1 8.7 0 12 1.6z"/><path class="st11" d="M535.5 630.9l-5.4 1.5-12.5 3.4c-2.9 2.2-6.1 3.8-9.6 4.8-7.6 1.9-12.6-2.3-16.7-8.8-1.7-2.6-.8-4.7 1.3-6.3 5.2-3.9 18.1-5.2 22-4.7 2.6.2 5.2-.2 7.6-1.2 1.7-.6 3.3-1.4 4.9-2.3l8.4 13.6z"/><path class="st5" d="M535.5 630.9l-5.4 1.5c-1.5-4.7-4.1-10.5-7.8-12.8 1.7-.6 3.3-1.4 4.9-2.3l8.3 13.6z"/><path class="st5" d="M572 618.1c-2.2 1.8-4.1 3.5-4.1 3.5s-26 8.2-31 18.4c0 0-4-20-12.5-20.3 0 0 9.2-3.6 11.8-6.7l25.6-1.3s5 2.7 10.2 6.4z"/><path class="st9" d="M571.6 539.7l5.8 8.5 1.8 26.5s.5 25.5 0 26.5l.5-1s-1 10-4 11.8-9.8 7.6-9.8 7.6-26 8.2-31 18.4c0 0-4-20-12.5-20.3 0 0 12.8-5 12.5-8.3 0 0 9.8-8.8 10.5-11s5.6-2.5 5.6-2.5 1.1-15.5-1.1-18-3.5-7.3-3.5-7.3l25.2-30.9z"/><path class="st5" d="M508 640.6c-7.6 1.9-12.6-2.3-16.7-8.8-1.7-2.6-.8-4.7 1.3-6.3l.8.3c.1 0 13.8 6 14.6 14.8z"/><path class="st11" d="M504.9 648.5c-9 12.5-25.8-4.9-27-8.4-.5-1.3-2.2-2.4-4.1-3.3-2.5-1.1-5.1-2-7.8-2.6l14.9-12.1 2.8 1.1 8.8 3.5c0 .1 21.4 9.3 12.4 21.8z"/><path class="st5" d="M483.7 623.3c-8.2 3.9-10 9.5-10 13.5-2.5-1.1-5.1-2-7.8-2.6l14.9-12.1 2.9 1.2z"/><path class="st5" d="M470.6 644.9s-24-19-35.5-27.3c-1.4-1-2.8-2.2-4-3.5 3.4-2.1 5.9-3.5 5.9-3.5l29.6 1.2c.8 1.4 1.3 2.3 1.3 2.3l16 10.5c-19.3 6.3-13.3 20.3-13.3 20.3z"/><path class="st9" d="M438.6 545.2l-4.8 2.8s-5.8 18.3-4.3 30.3c0 0-4.5 17.3-2.8 20 0 0-2.3 9.3 9.3 17.5s35.5 27.3 35.5 27.3-6-14 13.3-20.3l-16-10.5s-5.4-10.7-10.5-13c0 0-4-4-1.5-6.8s4.5-5.8 4.5-8.5 1-15.8 1-15.8l3-14-26.7-9z"/><path class="st5" d="M511.4 533.3h-9.8l-.2-.2.2-.8 1.3-3.2 8.4 3.2.1 1z"/><path class="st10" d="M514.5 516.4s-8.5 7.1-12.9 0c0 0-4 11.9 0 15.9h12s6.3-10.9.9-15.9z"/><path class="st5" d="M525.9 493.2l12.6 3.3s-11.9 31-14.6 31l-15.1-7.3 17.1-27z"/><path class="st5" d="M528.6 497.2l-20.2 21.4-.6.6-.7-.4 17.6-26.9.4.7c1.1 1.6 2.2 3.1 3.5 4.6z"/><path class="st9" d="M524.9 492.2l12.6 3.3s-11.9 31-14.6 31l-15.1-7.3 17.1-27z"/><path class="st5" d="M484.5 489.7l-10.9 3.4s10.8 32.5 13.8 34.3l19.5-7.3-22.4-30.4z"/><path class="st5" d="M508.4 518.6l-.6.6s-26.3-15.3-24.3-19.5c1-2.2 1.6-6.7 1.9-10.6v-.6l23 30.1z"/><path class="st9" d="M485.5 488.7l-10.9 3.4s10.8 32.5 13.8 34.3l19.5-7.3-22.4-30.4z"/><path class="st5" d="M459.5 541.8s6.6 1.2 6.5 8 2.7-8.8 2.7-8.8l-9.2.8zM461 562.8s-1.8 10.3 0 19.7 1.7 12.5 3.1 13-3.1-32.7-3.1-32.7zM545 561.8c-2 .3-3.4 2.1-3.1 4 0 .2.1.4.1.6.9 4.3 3-4.6 3-4.6zM430.7 596.8s21.4-1.8 25 2-25-2-25-2zM555 598.3s15.7-1.9 19.3.7M561.4 600.8s9.3.3 11.5 1.5M563.2 604.2s8.5-.3 9.7 1M443.3 651.2s7.3 3.8 6.5 7.7-6.5-7.7-6.5-7.7zM437 653s11.1 14.4 9.6 19.2S437 653 437 653zM556.1 655.4s-5.5 4.5-5.3 8.3M429.1 744.7s0 4.3 7.9 10.5M568 734.7s-.8 8.8-8.5 13.4"/><g opacity=".1"><path d="M473.6 434.6c0-.7-.1-1.4-.2-2.1-.1 1.5-.1 3.1.1 4.6.1-.8.1-1.6.1-2.5zM472 462.6c.2-2.9-2.4-5.2-3.1-8 0-.1-.1-.3-.1-.4-.2 1.1-.2 2.3.1 3.4.6 2.3 2.4 4.3 2.9 6.5.1-.6.2-1 .2-1.5zM542 450.1c-.9 1.7-2.1 3.2-3.6 4.4-2.3 2.1-5.2 4.5-8.3 3.8-4.6-1-6.2-8-10.8-8.5s-7.8 6-12.5 5.9c-2 0-3.8-1.4-5.6-2.3-3.2-1.6-8.5-2.6-12-1.4-5.2 1.8-7 6.6-10.4 10.5-1.3 1.4-2.7 2.6-4.4 3.6-.3.2-.7.3-1.1.4-.5-.1-.9-.4-1.1-.9v.1c-.1.7-.2 1.5-.2 2.2 0 .8.6 1.4 1.3 1.6.4 0 .8-.1 1.1-.4 1.7-.9 3.1-2.1 4.4-3.6 3.4-3.9 5.1-8.7 10.4-10.5 3.5-1.2 8.8-.2 12 1.4 1.8.9 3.6 2.2 5.6 2.3 4.7.1 7.8-6.4 12.5-5.9s6.3 7.4 10.8 8.5c3.1.7 6-1.6 8.3-3.8 1.5-1.2 2.7-2.7 3.6-4.4.6-1.4.7-3 .4-4.5-.1.5-.2 1-.4 1.5z"/></g><path class="st5" d="M404.8 784.3s8.2-2.5 11.6 2.3M594 785.3s-13.5-.8-13 2.9"/></svg>